<svg xmlns="http://www.w3.org/2000/svg" viewBox="0 0 512 512">
  <rect width="512" height="512" rx="112" fill="#0f172a"/>
  <circle cx="368" cy="132" r="76" fill="#22c55e"/>
  <path fill="#38bdf8" d="M122 326c0-101 64-181 145-181 36 0 70 16 96 44-22-11-47-17-72-17-90 0-163 74-163 165 0 15 2 30 6 44-8-17-12-36-12-55z"/>
  <path fill="#f8fafc" d="M176 352h160c16 0 28 13 28 28s-12 28-28 28H176c-16 0-28-13-28-28s12-28 28-28zm44-88h116c16 0 28 13 28 28s-12 28-28 28H220c-16 0-28-13-28-28s12-28 28-28z"/>
  <path fill="#22c55e" d="M148 176c0-18 15-32 33-32h70c18 0 33 14 33 32s-15 32-33 32h-70c-18 0-33-14-33-32z"/>
</svg>
